<svg width="391" height="436" viewBox="0 0 391 436" fill="none" xmlns="http://www.w3.org/2000/svg">
<g clip-path="url(#clip0_11_147)">
<path d="M372.606 410.956C370.169 411.812 367.552 412.026 365.008 411.579C362.463 411.131 360.077 410.036 358.08 408.4C352.991 404.133 351.394 397.105 350.098 390.596L346.259 371.346L354.297 376.876C360.077 380.852 365.987 384.955 369.99 390.715C373.992 396.474 375.739 404.336 372.523 410.568" fill="#E6E6E6"/>
<path d="M371.919 434.262C372.733 428.342 373.569 422.347 372.999 416.363C372.492 411.049 370.869 405.859 367.565 401.603C365.811 399.349 363.677 397.417 361.259 395.895C360.628 395.498 360.049 396.496 360.676 396.891C364.86 399.533 368.096 403.434 369.918 408.031C371.93 413.144 372.253 418.718 371.904 424.149C371.694 427.433 371.25 430.695 370.802 433.955C370.766 434.102 370.787 434.258 370.863 434.39C370.938 434.522 371.06 434.62 371.206 434.665C371.353 434.705 371.511 434.685 371.644 434.609C371.777 434.534 371.875 434.409 371.917 434.262L371.919 434.262Z" fill="#F2F2F2"/>
<path d="M342.788 335.935H6.52039V0H342.788V335.935Z" fill="white"/>
<path d="M342.788 335.935H6.52039V0H342.788V335.935ZM11.4887 330.972H337.82V4.96342H11.4887V330.972Z" fill="#E5E5E5"/>
<path d="M283.217 52.5573H137.599V57.0888H283.217V52.5573Z" fill="#E5E5E5"/>
<path d="M283.217 64.3394H137.599V68.8709H283.217V64.3394Z" fill="#E5E5E5"/>
<path d="M283.217 76.1215H137.599V80.6531H283.217V76.1215Z" fill="#E5E5E5"/>
<path d="M283.217 153.728H137.599V158.26H283.217V153.728Z" fill="#E5E5E5"/>
<path d="M283.217 165.51H137.599V170.042H283.217V165.51Z" fill="#E5E5E5"/>
<path d="M283.217 177.292H137.599V181.824H283.217V177.292Z" fill="#E5E5E5"/>
<path d="M283.217 254.899H137.599V259.43H283.217V254.899Z" fill="#E5E5E5"/>
<path d="M283.217 266.681H137.599V271.212H283.217V266.681Z" fill="#E5E5E5"/>
<path d="M283.217 278.463H137.599V282.995H283.217V278.463Z" fill="#E5E5E5"/>
<path d="M79.3048 88.6625C76.8172 87.3529 74.2205 86.2612 71.5441 85.3998L71.2029 81.6283L57.362 80.1385L55.603 84.9592L50.6358 86.8213C50.4581 86.8887 50.2889 86.9767 50.1318 87.0836H50.1264C49.8492 87.2708 49.6131 87.5124 49.4325 87.7938C49.252 88.0752 49.1307 88.3904 49.0762 88.7202C49.0232 89.0481 49.0357 89.3833 49.1131 89.7064L49.3757 90.7817C49.7536 91.0073 50.1423 91.2223 50.5307 91.4269L50.7776 91.5528C51.3447 91.8466 51.9223 92.1246 52.5156 92.3816C52.6364 92.4341 52.7676 92.4865 52.8884 92.539C52.8989 92.5442 52.904 92.5442 52.9145 92.5495C53.193 92.6649 53.4711 92.775 53.7547 92.8799C54.6861 93.2353 55.6361 93.54 56.6006 93.7926C59.062 94.448 61.5986 94.7796 64.1459 94.7788C65.0753 94.7788 65.9942 94.7368 66.9025 94.6477C68.9781 94.4563 71.0271 94.043 73.0145 93.415C73.0196 93.415 73.025 93.4097 73.0301 93.4097C74.2855 93.0102 75.5119 92.5247 76.7005 91.9567C76.7056 91.9515 76.7161 91.9515 76.7215 91.9463C76.9892 91.8203 77.2466 91.684 77.5091 91.5528L77.635 91.4898C77.845 91.3797 78.0552 91.2695 78.2652 91.1541C78.7902 90.8656 79.3048 90.5614 79.814 90.2362C79.9558 90.1522 80.0924 90.0631 80.2342 89.9686C80.4337 89.8375 80.6331 89.7011 80.8275 89.5595C80.3391 89.2448 79.8299 88.9458 79.3048 88.6625Z" fill="#3F3D56"/>
<path d="M53.3294 90.9863L52.4631 87.0784H50.2C50.1772 87.0787 50.1544 87.0804 50.1318 87.0836H50.1264C49.3131 87.1524 48.5299 87.4228 47.8477 87.8704C47.385 88.1655 46.9736 88.5341 46.6296 88.9615C47.3016 89.4703 48 89.9424 48.7194 90.3935L48.7509 90.4092C48.9555 90.5352 49.1658 90.661 49.3758 90.7817C49.7537 91.0072 50.1424 91.2223 50.5308 91.4269L50.7777 91.5528C51.3448 91.8465 51.9224 92.1245 52.5157 92.3816C52.6364 92.434 52.7677 92.4865 52.8885 92.5389C52.899 92.5442 52.9041 92.5442 52.9146 92.5495C53.1931 92.6649 53.4712 92.775 53.7548 92.8799L53.3294 90.9863Z" fill="#3F3D56"/>
<path d="M63.7393 77.754C69.2446 77.754 73.7076 73.2955 73.7076 67.7956C73.7076 62.2957 69.2446 57.8372 63.7393 57.8372C58.234 57.8372 53.771 62.2957 53.771 67.7956C53.771 73.2955 58.234 77.754 63.7393 77.754Z" fill="#FFB8B8"/>
<path d="M57.0467 62.9451C58.0786 64.165 59.8249 64.5093 61.4358 64.6504C65.2021 64.8583 68.9791 64.5502 72.6618 63.7347C72.89 65.9442 72.2678 68.3265 73.5705 70.1441C74.1812 67.9437 74.5363 65.6804 74.6288 63.3988C74.726 62.4199 74.5981 61.4318 74.2547 60.5098C74.0711 60.0478 73.7615 59.6465 73.361 59.3515C72.9604 59.0565 72.4851 58.8797 71.989 58.8411C72.7317 58.2783 73.6016 57.9068 74.522 57.7593L71.3568 56.1703L72.1696 55.3366L66.4393 54.9863L68.099 53.9329C65.601 53.59 63.0739 53.5104 60.5592 53.6952C59.3841 53.6957 58.2313 54.0158 57.2244 54.6212C56.2783 55.2971 55.7316 56.6405 56.319 57.6329C55.5836 57.7535 54.8913 58.0597 54.3075 58.5224C53.7237 58.9852 53.2679 59.5891 52.9831 60.2771C52.6231 61.3706 52.5361 62.5355 52.7299 63.6703C52.9458 65.491 53.3694 67.2811 53.9923 69.0056L57.0467 62.9451Z" fill="#2F2E41"/>
<path d="M91.7699 57.0005C90.3713 52.9865 88.1131 49.3257 85.1527 46.2732C82.1924 43.2207 78.6011 40.8501 74.6294 39.3266C70.6577 37.8031 66.4012 37.1635 62.1566 37.4523C57.9121 37.7411 53.7817 38.9515 50.0534 40.9989C46.3252 43.0463 43.0889 45.8815 40.5701 49.3068C38.0514 52.7321 36.3109 56.665 35.4701 60.8314C34.6292 64.9977 34.7081 69.2972 35.7014 73.4299C36.6947 77.5626 38.5784 81.4292 41.2212 84.7599C41.4837 85.0903 41.7568 85.4208 42.0352 85.7408C42.0562 85.7618 42.0719 85.7828 42.0929 85.8037C42.7773 86.5916 43.5048 87.3411 44.2719 88.0488C44.4716 88.2324 44.6816 88.4212 44.8916 88.5996C45.2905 88.9563 45.7002 89.2972 46.1255 89.6225C46.2935 89.7536 46.4563 89.8848 46.6296 90.0107C47.3016 90.5195 48 90.9916 48.7194 91.4427L48.7509 91.4584C48.9555 91.5843 49.1657 91.7102 49.3757 91.8309C49.7537 92.0564 50.1423 92.2715 50.5307 92.476L50.7776 92.602C51.3447 92.8957 51.9224 93.1737 52.5157 93.4307C52.6364 93.4832 52.7677 93.5357 52.8884 93.5881C52.8989 93.5934 52.9041 93.5934 52.9146 93.5986C53.193 93.714 53.4712 93.8242 53.7548 93.9291C54.6862 94.2845 55.6362 94.5891 56.6006 94.8418C59.062 95.4972 61.5986 95.8287 64.1459 95.828C65.0753 95.828 65.9942 95.786 66.9026 95.6968C68.9781 95.5054 71.0272 95.0922 73.0145 94.4641C73.0196 94.4641 73.025 94.4589 73.0301 94.4589C74.2855 94.0593 75.5119 93.5738 76.7005 93.0059C76.7056 93.0006 76.7161 93.0006 76.7215 92.9954C76.9892 92.8695 77.2466 92.7331 77.5092 92.602L77.635 92.539C77.845 92.4288 78.0552 92.3187 78.2652 92.2033C78.7903 91.9148 79.3049 91.6105 79.814 91.2853C79.9558 91.2014 80.0925 91.1122 80.2342 91.0178C80.4337 90.8867 80.6332 90.7503 80.8275 90.6086C81.0847 90.4303 81.3421 90.2467 81.5941 90.0579C81.6728 90.0002 81.7569 89.9425 81.8356 89.8795C86.7548 86.1494 90.3656 80.959 92.1502 75.0525C93.9348 69.1461 93.8017 62.8267 91.7699 57.0005ZM80.8696 88.6048C80.6963 88.7412 80.5178 88.8724 80.3391 88.993C80.1658 89.1242 79.9927 89.25 79.814 89.3654C79.6618 89.4756 79.5094 89.5805 79.352 89.6802L79.3049 89.7117C79.1892 89.7903 79.0739 89.8637 78.9582 89.9372C78.5224 90.2099 78.0813 90.4722 77.635 90.724L77.4933 90.8027C77.2938 90.9129 77.0943 91.0178 76.8949 91.1227C76.8685 91.1385 76.8369 91.149 76.8108 91.1647L76.7793 91.1804C76.5272 91.3116 76.2698 91.4375 76.0127 91.5581C75.0198 92.0357 73.9973 92.4492 72.9515 92.796C72.8148 92.8432 72.6784 92.8905 72.542 92.9324C70.661 93.5301 68.721 93.924 66.7557 94.1074C65.8945 94.1861 65.0228 94.2281 64.146 94.2281C61.7366 94.233 59.3372 93.9191 57.0103 93.2944C55.8162 92.983 54.6458 92.5868 53.5081 92.1089C53.4502 92.0826 53.3871 92.0617 53.3294 92.0355C53.2666 92.0092 53.2087 91.9882 53.151 91.962C53.0879 91.9358 53.0302 91.9096 52.9671 91.8781C52.4736 91.663 51.9852 91.427 51.5076 91.1804L51.2766 91.0598C50.6935 90.7556 50.1213 90.4303 49.5647 90.0841C49.4019 89.9844 49.2339 89.8796 49.0763 89.7693C49.0345 89.7431 48.9976 89.7169 48.9555 89.6907C48.5827 89.4441 48.21 89.1871 47.8477 88.9196C47.6011 88.736 47.3541 88.5524 47.1126 88.3636C46.7083 88.0593 46.3196 87.7341 45.9417 87.3984C45.7423 87.2305 45.5479 87.0469 45.359 86.8738C44.6145 86.1871 43.9097 85.4585 43.2482 84.6917C43.0277 84.4399 42.8123 84.1881 42.6075 83.9258C42.5609 83.874 42.5171 83.8197 42.4762 83.7632C39.0646 79.4625 37.0126 74.2441 36.5818 68.7736C36.1511 63.303 37.361 57.8283 40.0575 53.0475C42.7539 48.2668 46.8146 44.3967 51.7216 41.9308C56.6287 39.4649 62.1597 38.515 67.6093 39.2023C73.0589 39.8895 78.1802 42.1827 82.3199 45.7894C86.4596 49.3961 89.4302 54.1529 90.8529 59.4531C92.2755 64.7533 92.0857 70.3567 90.3076 75.5487C88.5296 80.7407 85.2439 85.2859 80.8696 88.6048Z" fill="#3F3D56"/>
<path d="M91.7701 158.171C90.3715 154.157 88.1133 150.496 85.1529 147.444C82.1926 144.391 78.6013 142.021 74.6297 140.497C70.658 138.974 66.4014 138.334 62.1569 138.623C57.9123 138.912 53.7819 140.122 50.0537 142.17C46.3254 144.217 43.0891 147.052 40.5704 150.478C38.0517 153.903 36.3112 157.836 35.4703 162.002C34.6294 166.168 34.7084 170.468 35.7017 174.601C36.6949 178.733 38.5786 182.6 41.2214 185.931C41.484 186.261 41.757 186.592 42.0352 186.912C42.0562 186.932 42.0718 186.953 42.0929 186.974C42.7775 187.762 43.505 188.512 44.2721 189.22C44.4716 189.403 44.6816 189.592 44.8915 189.77C45.2907 190.127 45.7002 190.468 46.1255 190.793C46.956 191.447 47.8219 192.055 48.7193 192.613L48.7509 192.629C49.3336 192.991 49.9269 193.327 50.5309 193.647L50.7776 193.773C51.3447 194.066 51.9223 194.344 52.5156 194.601C52.6364 194.654 52.7676 194.706 52.8884 194.759C52.8989 194.764 52.9043 194.764 52.9148 194.769C54.1136 195.267 55.3451 195.683 56.6008 196.013C59.0622 196.668 61.5986 196.999 64.1459 196.999C65.0753 196.999 65.9942 196.957 66.9025 196.868C68.9781 196.676 71.0271 196.263 73.0145 195.635C73.0198 195.635 73.025 195.63 73.0301 195.63C74.2855 195.23 75.5119 194.745 76.7005 194.177C76.7056 194.171 76.7164 194.171 76.7215 194.166C76.9892 194.04 77.2466 193.904 77.5091 193.773L77.6352 193.71C77.8452 193.6 78.0552 193.489 78.2652 193.374C78.7902 193.085 79.3048 192.781 79.8142 192.456C79.956 192.372 80.0924 192.283 80.2342 192.188C80.6962 191.884 81.1531 191.559 81.594 191.229C81.673 191.171 81.7569 191.113 81.8358 191.05C86.7549 187.32 90.3655 182.13 92.1501 176.223C93.9347 170.317 93.8017 163.998 91.7701 158.171Z" fill="white"/>
<path d="M73.7988 179.822C76.2199 179.822 78.1826 177.861 78.1826 175.442C78.1826 173.024 76.2199 171.063 73.7988 171.063C71.3777 171.063 69.415 173.024 69.415 175.442C69.415 177.861 71.3777 179.822 73.7988 179.822Z" fill="#2F2E41"/>
<path d="M75.0202 171.184C75.7789 171.184 76.5247 171.38 77.1845 171.754C77.8443 172.129 78.3957 172.668 78.7846 173.318C79.1735 173.969 79.3867 174.71 79.4033 175.468C79.42 176.225 79.2394 176.975 78.8794 177.642C79.2594 177.167 79.5361 176.618 79.692 176.03C79.8479 175.442 79.8795 174.828 79.7848 174.228C79.6902 173.627 79.4713 173.053 79.1421 172.541C78.813 172.03 78.3808 171.592 77.8731 171.257C77.3654 170.921 76.7934 170.695 76.1934 170.593C75.5934 170.49 74.9786 170.514 74.3882 170.662C73.7979 170.81 73.2448 171.079 72.7644 171.453C72.2839 171.826 71.8866 172.295 71.5977 172.831C72.0075 172.317 72.5282 171.901 73.1208 171.616C73.7134 171.331 74.3623 171.183 75.0202 171.184Z" fill="#2F2E41"/>
<path d="M65.6066 175.433C72.7189 175.433 78.4846 169.673 78.4846 162.568C78.4846 155.462 72.7189 149.703 65.6066 149.703C58.4943 149.703 52.7287 155.462 52.7287 162.568C52.7287 169.673 58.4943 175.433 65.6066 175.433Z" fill="#2F2E41"/>
<path d="M55.4995 154.586C57.7185 152.093 60.8202 150.558 64.1501 150.306C67.48 150.055 70.7775 151.105 73.3467 153.236C73.2417 153.136 73.1367 153.036 73.028 152.938C70.4841 150.662 67.139 149.488 63.7287 149.675C60.3184 149.862 57.1222 151.395 54.8433 153.936C52.5643 156.478 51.3892 159.82 51.5766 163.227C51.7639 166.633 53.2984 169.827 55.8423 172.103C55.8667 172.125 55.8913 172.147 55.9159 172.169C56.0251 172.266 56.1375 172.357 56.2493 172.45C53.8299 170.151 52.3993 167.002 52.2595 163.669C52.1197 160.336 53.2811 157.079 55.4995 154.586Z" fill="#2F2E41"/>
<path d="M65.4974 175.324C70.0781 175.324 73.7914 171.614 73.7914 167.038C73.7914 162.462 70.0781 158.752 65.4974 158.752C60.9167 158.752 57.2034 162.462 57.2034 167.038C57.2034 171.614 60.9167 175.324 65.4974 175.324Z" fill="#A0616A"/>
<path d="M80.3393 188.627V191.407C79.8299 191.732 79.3153 192.036 78.7902 192.325C78.5802 192.44 78.3703 192.55 78.1603 192.661L78.0342 192.724C77.7716 192.855 77.5142 192.991 77.2466 193.117C77.2414 193.122 77.2307 193.122 77.2255 193.127C76.0369 193.695 74.8106 194.181 73.5551 194.58C73.55 194.58 73.5449 194.586 73.5395 194.586C71.5522 195.214 69.5032 195.627 67.4276 195.818C66.5192 195.908 65.6004 195.95 64.671 195.95C62.1237 195.95 59.5872 195.619 57.1259 194.963C55.8702 194.634 54.6387 194.218 53.4399 193.72C53.4294 193.715 53.424 193.715 53.4134 193.71C53.2927 193.657 53.1614 193.605 53.0407 193.552C52.4474 193.295 51.8698 193.017 51.3026 192.724L51.056 192.598C50.452 192.278 49.8587 191.942 49.2759 191.58L49.2444 191.564C48.347 191.006 47.481 190.398 46.6506 189.744C46.2252 189.419 45.8158 189.078 45.4166 188.721C45.2066 188.543 44.9967 188.354 44.7972 188.17C44.03 187.463 43.3025 186.713 42.6179 185.925C42.7087 185.379 42.8422 184.841 43.0171 184.315L43.0222 184.31C43.0537 184.22 43.0905 184.133 43.1325 184.047C43.1615 183.972 43.1948 183.899 43.2322 183.827C44.1721 182.07 45.8735 181.634 47.9843 181.54C49.1762 181.488 50.494 181.545 51.8857 181.53C52.6207 181.524 53.3819 181.498 54.1434 181.43C58.9478 180.995 58.0763 178.162 58.2914 176.635C58.5068 175.156 59.8405 176.436 59.9297 176.52L59.9348 176.525C62.6536 177.796 65.6616 178.323 68.6511 178.052C69.1657 177.989 69.6802 177.952 70.1948 177.936C71.5495 177.921 71.2554 178.309 70.7883 178.629C70.5615 178.778 70.3246 178.911 70.0794 179.028C70.0794 179.028 69.864 180.339 69.6436 182.301C69.4336 184.179 73.0355 185.06 73.3347 185.128C73.3409 185.132 73.3483 185.134 73.3557 185.133C74.6711 184.792 76.056 184.829 77.3517 185.238H77.3568C78.0972 185.51 78.7577 185.963 79.2786 186.554C79.7994 187.146 80.164 187.859 80.3393 188.627Z" fill="#6C63FF"/>
<path d="M53.4922 192C53.4922 192.388 53.4819 192.76 53.466 193.112C53.4609 193.322 53.4504 193.526 53.4399 193.72C53.4294 193.715 53.424 193.715 53.4135 193.71C53.2927 193.657 53.1614 193.605 53.0407 193.552C52.4474 193.295 51.8698 193.017 51.3027 192.724L51.056 192.598C50.452 192.278 49.8587 191.942 49.276 191.58C49.2916 191.396 49.318 191.213 49.3441 191.029C49.4018 190.625 49.4493 190.216 49.4808 189.812C49.6872 186.975 49.1724 184.131 47.9843 181.545V181.54C47.8792 181.33 47.8163 181.215 47.8163 181.215C47.8163 181.215 49.3441 179.903 51.5231 181.215C51.6623 181.297 51.7852 181.403 51.8857 181.53C53.1984 183.077 53.5552 188.281 53.4922 192Z" fill="#2F2E41"/>
<path d="M77.3358 191.286C77.3148 191.874 77.2832 192.487 77.2466 193.112V193.117C77.2414 193.122 77.2307 193.122 77.2255 193.127C76.037 193.695 74.8106 194.181 73.5552 194.58C73.55 194.58 73.5449 194.586 73.5395 194.586L73.4818 193.112L73.4765 192.918L73.1983 185.742C73.1908 185.579 73.2164 185.417 73.2735 185.265C73.3305 185.112 73.4179 184.973 73.5303 184.856C73.6426 184.738 73.7777 184.644 73.9273 184.58C74.0769 184.516 74.2379 184.483 74.4007 184.483H77.0627C77.194 184.483 77.2886 184.75 77.3517 185.233V185.238C77.4808 187.252 77.4755 189.273 77.3358 191.286Z" fill="#2F2E41"/>
<path d="M58.4037 156.681V164.969H60.3244L62.7686 162.352L62.4415 164.969H70.9319L70.4069 162.352L71.457 164.969H72.8107V156.681H58.4037Z" fill="#2F2E41"/>
<path d="M57.0942 166.493C57.4558 166.493 57.7489 165.956 57.7489 165.294C57.7489 164.632 57.4558 164.095 57.0942 164.095C56.7325 164.095 56.4394 164.632 56.4394 165.294C56.4394 165.956 56.7325 166.493 57.0942 166.493Z" fill="#A0616A"/>
<path d="M73.9012 166.493C74.2628 166.493 74.5559 165.956 74.5559 165.294C74.5559 164.632 74.2628 164.095 73.9012 164.095C73.5395 164.095 73.2464 164.632 73.2464 165.294C73.2464 165.956 73.5395 166.493 73.9012 166.493Z" fill="#A0616A"/>
<path d="M82.1191 190.179C81.6782 190.51 81.2213 190.835 80.7593 191.139C80.6175 191.234 80.4811 191.323 80.3393 191.407C79.8299 191.732 79.3153 192.036 78.7903 192.325C78.5803 192.44 78.3703 192.55 78.1603 192.661V186.88C78.1603 186.88 79.0002 187.551 80.3393 188.669C80.5072 188.81 80.6806 188.957 80.8644 189.115C81.2528 189.44 81.673 189.797 82.1191 190.179Z" fill="#6C63FF"/>
<path d="M91.7701 158.171C90.3715 154.157 88.1133 150.496 85.1529 147.444C82.1926 144.391 78.6013 142.021 74.6297 140.497C70.658 138.974 66.4014 138.334 62.1569 138.623C57.9123 138.912 53.7819 140.122 50.0537 142.17C46.3254 144.217 43.0891 147.052 40.5704 150.478C38.0517 153.903 36.3112 157.836 35.4703 162.002C34.6294 166.168 34.7084 170.468 35.7017 174.601C36.6949 178.733 38.5786 182.6 41.2214 185.931C41.484 186.261 41.757 186.592 42.0352 186.912C42.0562 186.932 42.0718 186.953 42.0929 186.974C42.7775 187.762 43.505 188.512 44.2721 189.22C44.4716 189.403 44.6816 189.592 44.8915 189.77C45.2907 190.127 45.7002 190.468 46.1255 190.793C46.956 191.447 47.8219 192.055 48.7193 192.613L48.7509 192.629C49.3336 192.991 49.9269 193.327 50.5309 193.647L50.7776 193.773C51.3447 194.066 51.9223 194.344 52.5156 194.601C52.6364 194.654 52.7676 194.706 52.8884 194.759C52.8989 194.764 52.9043 194.764 52.9148 194.769C54.1136 195.267 55.3451 195.683 56.6008 196.013C59.0622 196.668 61.5986 196.999 64.1459 196.999C65.0753 196.999 65.9942 196.957 66.9025 196.868C68.9781 196.676 71.0271 196.263 73.0145 195.635C73.0198 195.635 73.025 195.63 73.0301 195.63C74.2855 195.23 75.5119 194.745 76.7005 194.177C76.7056 194.171 76.7164 194.171 76.7215 194.166C76.9892 194.04 77.2466 193.904 77.5091 193.773L77.6352 193.71C77.8452 193.6 78.0552 193.489 78.2652 193.374C78.7902 193.085 79.3048 192.781 79.8142 192.456C79.956 192.372 80.0924 192.283 80.2342 192.188C80.6962 191.884 81.1531 191.559 81.594 191.229C81.673 191.171 81.7569 191.113 81.8358 191.05C86.7549 187.32 90.3655 182.13 92.1501 176.223C93.9347 170.317 93.8017 163.998 91.7701 158.171ZM80.8695 189.776C80.6962 189.912 80.5177 190.043 80.3393 190.164C80.166 190.295 79.9927 190.421 79.8143 190.536C79.662 190.646 79.5097 190.751 79.352 190.851C79.2207 190.94 79.0895 191.024 78.9582 191.108C78.5226 191.381 78.0816 191.643 77.6352 191.895L77.4932 191.973C77.2937 192.084 77.0943 192.188 76.8948 192.293C76.8684 192.309 76.8369 192.32 76.8107 192.335L76.7792 192.351C76.5272 192.482 76.27 192.608 76.0126 192.729C75.0198 193.206 73.9973 193.62 72.9514 193.967C72.815 194.014 72.6784 194.061 72.542 194.103C70.6609 194.701 68.721 195.095 66.7556 195.278C65.8944 195.357 65.0227 195.399 64.1459 195.399C61.7365 195.404 59.3371 195.09 57.0103 194.465C55.8161 194.154 54.6457 193.757 53.5081 193.28C53.3873 193.232 53.2665 193.18 53.1509 193.133C53.0881 193.106 53.0302 193.08 52.9671 193.049C52.4736 192.834 51.9854 192.598 51.5075 192.351L51.2765 192.23C50.6938 191.926 50.1213 191.601 49.5646 191.255C49.3601 191.129 49.1552 190.998 48.9557 190.861C48.3255 190.447 47.7113 190.001 47.1126 189.534C46.7083 189.23 46.3199 188.905 45.9417 188.569C45.7422 188.401 45.5479 188.218 45.3589 188.045C44.6145 187.358 43.9097 186.629 43.2481 185.862C43.0277 185.611 42.8123 185.359 42.6074 185.097C42.5609 185.045 42.517 184.99 42.4762 184.934C39.0646 180.633 37.0126 175.415 36.5818 169.944C36.151 164.474 37.361 158.999 40.0574 154.218C42.7539 149.437 46.8145 145.567 51.7216 143.102C56.6286 140.636 62.1596 139.686 67.6093 140.373C73.0589 141.06 78.1801 143.353 82.3198 146.96C86.4596 150.567 89.4302 155.324 90.8528 160.624C92.2755 165.924 92.0856 171.527 90.3076 176.719C88.5295 181.911 85.2438 186.457 80.8695 189.776Z" fill="#3F3D56"/>
<path d="M64.3111 282.081C70.6406 282.081 75.7716 276.955 75.7716 270.632C75.7716 264.309 70.6406 259.183 64.3111 259.183C57.9817 259.183 52.8506 264.309 52.8506 270.632C52.8506 276.955 57.9817 282.081 64.3111 282.081Z" fill="#2F2E41"/>
<path d="M55.3656 264.459C57.2176 262.609 57.5929 259.984 56.2039 258.596C54.8149 257.209 52.1876 257.584 50.3357 259.434C48.4837 261.284 48.1083 263.909 49.4973 265.296C50.8863 266.684 53.5136 266.309 55.3656 264.459Z" fill="#2F2E41"/>
<path d="M76.256 260.823C77.0276 259.018 75.7006 256.722 73.2921 255.694C70.8836 254.667 68.3055 255.296 67.5339 257.101C66.7622 258.906 68.0892 261.202 70.4978 262.23C72.9063 263.257 75.4844 262.628 76.256 260.823Z" fill="#2F2E41"/>
<path d="M78.0196 292.84L76.6693 290.718C76.0964 289.439 75.0396 288.439 73.7303 287.938C72.421 287.436 70.9661 287.473 69.6841 288.041C68.4021 288.608 67.3976 289.661 66.8906 290.967C66.3836 292.273 66.4154 293.726 66.979 295.009L67.363 296.385L67.8 297.945C69.569 297.722 71.3145 297.341 73.0156 296.808C73.0207 296.807 73.0253 296.805 73.0289 296.801C74.2863 296.404 75.514 295.918 76.7026 295.346C76.7091 295.34 76.7155 295.34 76.7223 295.333C76.987 295.208 77.2452 295.075 77.51 294.943C77.5532 294.924 77.5952 294.902 77.6357 294.877C77.8474 294.771 78.0594 294.659 78.2646 294.546C78.4763 294.434 78.6814 294.315 78.88 294.189L78.0196 292.84Z" fill="#CACACA"/>
<path d="M64.6746 283.082C70.0463 283.082 74.401 278.732 74.401 273.365C74.401 267.999 70.0463 263.648 64.6746 263.648C59.3028 263.648 54.9482 267.999 54.9482 273.365C54.9482 278.732 59.3028 283.082 64.6746 283.082Z" fill="#FFB6B6"/>
<path d="M78.7213 292.424C77.6484 290.642 76.3167 289.028 74.7696 287.636C73.71 286.69 72.3385 286.168 70.9175 286.168H57.216C56.4265 286.168 55.6453 286.33 54.9207 286.643C54.1961 286.956 53.5436 287.414 53.0032 287.989C52.4629 288.564 52.0464 289.244 51.7794 289.986C51.5124 290.729 51.4006 291.518 51.4509 292.305C51.4808 292.749 51.5608 293.188 51.6894 293.614C51.7871 293.923 51.9087 294.224 52.0533 294.513L52.7284 295.862C52.7814 295.882 52.8344 295.909 52.8871 295.928C52.9004 295.935 52.9072 295.935 52.9136 295.942C53.1915 296.054 53.4698 296.166 53.7542 296.272C54.6856 296.628 55.6359 296.933 56.6006 297.185C58.1535 297.601 59.7387 297.887 61.3396 298.038C62.2729 298.124 63.2063 298.17 64.1462 298.17C65.0795 298.17 65.9929 298.124 66.9062 298.038C67.2042 298.011 67.5019 297.978 67.7999 297.945C69.5689 297.722 71.3144 297.342 73.0156 296.808C73.0206 296.807 73.0253 296.805 73.0288 296.801C74.2863 296.404 75.5139 295.918 76.7025 295.347C76.709 295.34 76.7155 295.34 76.7223 295.333C76.9869 295.208 77.2452 295.075 77.5099 294.943C77.5531 294.924 77.5951 294.902 77.6356 294.877C77.8473 294.771 78.0593 294.659 78.2645 294.546C78.4762 294.434 78.6813 294.315 78.8799 294.189C79.0919 294.077 79.2903 293.951 79.4956 293.826C79.2442 293.33 78.986 292.867 78.7213 292.424Z" fill="#CACACA"/>
<path d="M59.6981 287.941C58.4302 287.348 56.979 287.281 55.6618 287.754C54.3446 288.228 53.2686 289.203 52.669 290.466L51.4509 292.305L50.8685 293.184L49.9816 294.52C50.1668 294.619 50.3455 294.718 50.5311 294.817L50.7757 294.943C51.3452 295.234 51.9208 295.512 52.5168 295.77C52.5827 295.803 52.6558 295.829 52.7284 295.862C52.7814 295.882 52.8345 295.909 52.8871 295.928C52.9004 295.935 52.9072 295.935 52.9136 295.942C53.1916 296.054 53.4698 296.166 53.7542 296.272C54.6857 296.628 55.6359 296.933 56.6006 297.185C58.1535 297.601 59.7388 297.887 61.3396 298.038L61.803 296.471L62.2532 294.976C62.8466 293.704 62.9108 292.25 62.4318 290.931C61.9528 289.612 60.9697 288.536 59.6981 287.941Z" fill="#CACACA"/>
<path d="M54.4545 267.253C56.6771 268.784 59.3152 269.598 62.0146 269.587C61.0517 270.254 59.9555 270.705 58.8015 270.908C62.3905 271.677 66.0998 271.698 69.6973 270.969C70.4969 270.841 71.2685 270.576 71.9782 270.187C72.3318 269.989 72.6399 269.72 72.8825 269.396C73.1251 269.072 73.2966 268.7 73.3861 268.306C73.6251 266.941 72.561 265.702 71.4551 264.866C69.762 263.607 67.8097 262.739 65.7397 262.326C63.6697 261.913 61.5336 261.964 59.4859 262.477C58.1216 262.751 56.8801 263.452 55.9411 264.478C55.4867 265 55.2124 265.655 55.1587 266.345C55.105 267.034 55.2747 267.723 55.6428 268.309L54.4545 267.253Z" fill="#2F2E41"/>
<path d="M91.7737 259.342C90.3754 255.327 88.1173 251.666 85.157 248.613C82.1967 245.56 78.6053 243.189 74.6334 241.665C70.6615 240.142 66.4047 239.502 62.1598 239.79C57.915 240.079 53.7842 241.289 50.0557 243.337C46.3272 245.384 43.0906 248.22 40.5718 251.645C38.053 255.071 36.3125 259.004 35.4717 263.171C34.6309 267.338 34.7101 271.637 35.7037 275.77C36.6973 279.903 38.5814 283.77 41.2247 287.101C41.4826 287.431 41.7609 287.762 42.0388 288.079C42.0548 288.103 42.0725 288.125 42.0918 288.146C42.7773 288.933 43.5065 289.681 44.276 290.387C44.4744 290.572 44.6796 290.764 44.8917 290.943C45.2885 291.3 45.699 291.637 46.1292 291.961C46.2946 292.093 46.4601 292.225 46.6324 292.351C47.3007 292.86 48.0024 293.33 48.7173 293.786C48.7295 293.786 48.7413 293.791 48.7503 293.799C48.9555 293.925 49.1675 294.05 49.3792 294.169C49.5776 294.289 49.7829 294.408 49.9816 294.52C50.1668 294.619 50.3455 294.718 50.5311 294.817L50.7757 294.943C51.3452 295.234 51.9208 295.512 52.5168 295.77C52.5827 295.803 52.6558 295.829 52.7284 295.862C52.7814 295.882 52.8345 295.909 52.8871 295.928C52.9004 295.935 52.9072 295.935 52.9136 295.942C53.1915 296.054 53.4698 296.166 53.7542 296.272C54.6857 296.628 55.6359 296.933 56.6006 297.185C58.1535 297.601 59.7388 297.887 61.3396 298.038C62.273 298.124 63.2063 298.17 64.1462 298.17C65.0796 298.17 65.9929 298.124 66.9062 298.038C67.2042 298.011 67.5019 297.978 67.7999 297.945C69.5689 297.722 71.3144 297.341 73.0156 296.808C73.0206 296.807 73.0253 296.805 73.0288 296.801C74.2863 296.404 75.5139 295.918 76.7025 295.346C76.709 295.34 76.7155 295.34 76.7223 295.333C76.9869 295.208 77.2452 295.075 77.5099 294.943C77.5531 294.924 77.5951 294.902 77.6356 294.877C77.8473 294.771 78.0593 294.659 78.2645 294.546C78.4762 294.434 78.6813 294.315 78.8799 294.189C79.0919 294.077 79.2903 293.951 79.4956 293.826C79.6016 293.759 79.7075 293.693 79.8133 293.627C79.959 293.541 80.0912 293.455 80.237 293.356C80.4354 293.23 80.6342 293.092 80.8259 292.953C81.0841 292.774 81.3423 292.589 81.5938 292.397C81.6785 292.342 81.7603 292.283 81.8387 292.219C86.7541 288.486 90.3621 283.296 92.1465 277.391C93.9309 271.486 93.8004 265.168 91.7737 259.342ZM80.8724 290.943C80.7001 291.081 80.5214 291.214 80.343 291.333C80.164 291.465 79.992 291.591 79.8133 291.71C79.6611 291.815 79.5088 291.921 79.3502 292.02C79.3358 292.033 79.3202 292.044 79.3036 292.054C79.1912 292.133 79.0719 292.206 78.9595 292.278C78.8799 292.325 78.8008 292.378 78.7213 292.424C78.4895 292.569 78.2578 292.708 78.0196 292.84C77.8939 292.92 77.7614 292.992 77.6357 293.065C77.5894 293.092 77.5429 293.118 77.4966 293.145C77.2914 293.257 77.093 293.356 76.8942 293.462C76.868 293.482 76.8347 293.488 76.815 293.508C76.8027 293.509 76.7909 293.513 76.7817 293.521C76.5303 293.654 76.2721 293.779 76.0142 293.898C75.0203 294.376 73.9966 294.789 72.9493 295.135C72.8171 295.181 72.6782 295.234 72.5457 295.274C70.8576 295.809 69.1221 296.181 67.3629 296.385C67.1645 296.411 66.9593 296.431 66.754 296.451C65.8937 296.53 65.0266 296.57 64.1462 296.57C63.365 296.57 62.5774 296.537 61.8031 296.471C60.1841 296.336 58.5804 296.057 57.0111 295.637C55.8165 295.326 54.6462 294.929 53.5096 294.447C53.4498 294.421 53.3904 294.401 53.3309 294.374C53.2647 294.348 53.2117 294.328 53.1522 294.302C53.0859 294.275 53.0329 294.249 52.9667 294.216C52.5365 294.031 52.1063 293.826 51.6894 293.614C51.6296 293.581 51.5702 293.555 51.5107 293.521L51.279 293.402C51.14 293.33 51.001 293.257 50.8685 293.184C50.4251 292.946 49.9882 292.688 49.5648 292.424C49.4058 292.325 49.2338 292.219 49.0748 292.113L48.9556 292.034C48.5848 291.782 48.2145 291.531 47.8502 291.26C47.6052 291.075 47.3538 290.896 47.1156 290.705C46.7119 290.4 46.3212 290.076 45.9441 289.739C45.7453 289.574 45.5469 289.389 45.3617 289.217C44.6163 288.531 43.9113 287.802 43.2502 287.035C43.0318 286.783 42.8133 286.532 42.6081 286.268C42.5618 286.215 42.5221 286.162 42.4755 286.102C39.0632 281.801 37.0105 276.582 36.5793 271.111C36.1481 265.64 37.3579 260.164 40.0544 255.383C42.7509 250.601 46.8118 246.73 51.7194 244.264C56.627 241.797 62.1587 240.847 67.6091 241.534C73.0595 242.221 78.1815 244.514 82.3219 248.122C86.4624 251.729 89.4335 256.486 90.8565 261.787C92.2795 267.088 92.0898 272.692 90.3116 277.885C88.5335 283.077 85.2473 287.623 80.8724 290.943Z" fill="#3F3D56"/>
<path d="M113.083 116.57C102.898 107.984 90.434 102.541 77.2084 100.903C63.9829 99.2642 50.5658 101.501 38.5898 107.342C26.6138 113.182 16.5953 122.374 9.75329 133.799C2.91129 145.225 -0.459158 158.39 0.0520826 171.694C0.563323 184.998 4.9342 197.866 12.6329 208.734C20.3315 219.601 31.026 227.999 43.415 232.905C55.804 237.811 69.3532 239.014 82.4141 236.367C95.4749 233.721 107.484 227.339 116.981 217.998L201.307 289.082C202.591 290.16 204.25 290.685 205.921 290.543C207.592 290.401 209.138 289.602 210.221 288.323C211.303 287.044 211.834 285.388 211.697 283.718C211.559 282.048 210.764 280.501 209.487 279.416L209.478 279.408L125.151 208.324C134.947 194.279 139.14 177.085 136.908 160.112C134.675 143.139 126.179 127.611 113.083 116.57ZM107.647 201.479C101.077 209.257 92.3468 214.914 82.5592 217.735C72.7715 220.556 62.3663 220.414 52.6594 217.327C42.9525 214.24 34.3799 208.347 28.0256 200.393C21.6713 192.439 17.8207 182.781 16.9608 172.64C16.1008 162.5 18.2702 152.333 23.1944 143.424C28.1187 134.515 35.5768 127.265 44.6255 122.591C53.6742 117.917 63.9072 116.028 74.0303 117.164C84.1535 118.299 93.7123 122.408 101.498 128.971C111.938 137.772 118.451 150.355 119.604 163.953C120.757 177.551 116.456 191.05 107.647 201.479Z" fill="#3F3D56"/>
<path opacity="0.3" d="M35.067 207.622C25.1862 199.292 18.8025 187.555 17.1833 174.74C15.5642 161.926 18.8281 148.972 26.327 138.45C25.3422 139.441 24.3901 140.479 23.4709 141.563C19.109 146.728 15.8079 152.7 13.7563 159.138C11.7047 165.577 10.9426 172.357 11.5136 179.09C12.0845 185.823 13.9774 192.377 17.0841 198.379C20.1908 204.382 24.4504 209.714 29.6198 214.071C34.7892 218.429 40.7671 221.727 47.2122 223.776C53.6574 225.826 60.4435 226.587 67.1831 226.017C73.9228 225.446 80.484 223.555 86.4921 220.452C92.5003 217.348 97.8376 213.093 102.2 207.929C103.117 206.843 103.98 205.731 104.791 204.592C95.6704 213.747 83.4374 219.14 70.5208 219.702C57.6041 220.263 44.9486 215.951 35.067 207.622Z" fill="black"/>
<path d="M283.084 291.739C283.743 290.936 284.217 289.998 284.474 288.992C284.731 287.985 284.763 286.935 284.57 285.915C284.376 284.894 283.961 283.929 283.353 283.086C282.746 282.244 281.96 281.544 281.053 281.037L265.682 218.187L254.47 221.763L271.067 284.184C270.316 285.764 270.171 287.563 270.659 289.242C271.148 290.921 272.236 292.363 273.717 293.294C275.198 294.225 276.97 294.582 278.696 294.295C280.423 294.008 281.984 293.099 283.084 291.739Z" fill="#FFB6B6"/>
<path d="M275.14 251.537L266.945 258.599L255.481 268.472L250.418 242.591L249.888 239.9L249.471 237.764L261.088 217.55L270.771 218.104L271.433 218.144L271.446 218.29L271.599 219.646L273.584 237.486L273.631 237.916L275.14 251.537Z" fill="#3F3D56"/>
<path d="M221.58 427.213L213.465 427.213L209.604 395.944L221.582 395.944L221.58 427.213Z" fill="#FFB6B6"/>
<path d="M223.649 435.071L197.484 435.07V434.74C197.484 432.042 198.557 429.454 200.467 427.546C202.377 425.638 204.967 424.566 207.668 424.566H207.669L223.65 424.566L223.649 435.071Z" fill="#2F2E41"/>
<path d="M306.303 427.875L298.188 427.874L294.328 396.605L306.305 396.606L306.303 427.875Z" fill="#FFB6B6"/>
<path d="M308.372 435.733L282.207 435.732V435.401C282.207 432.703 283.28 430.115 285.19 428.207C287.1 426.299 289.69 425.227 292.391 425.227H292.392L308.373 425.228L308.372 435.733Z" fill="#2F2E41"/>
<path d="M312.789 415.427L290.946 418.733L259.168 311.294L225.418 419.395L200.928 416.088L232.699 290.452V280.533L237.001 265.655L236.551 261.628L233.42 233.466L232.063 221.252L231.975 220.463C231.902 219.801 232.077 219.136 232.468 218.596C232.859 218.056 233.436 217.68 234.089 217.543L244.282 215.4H260.942L270.771 218.105L271.446 218.29L271.751 218.376L271.599 219.646L269.295 238.941L269.17 239.999L266.945 258.6L266.456 262.679C285.651 276.566 286.313 290.452 286.313 290.452L312.789 415.427Z" fill="#2F2E41"/>
<path d="M250.599 207.035C259.577 207.035 266.856 199.763 266.856 190.794C266.856 181.824 259.577 174.553 250.599 174.553C241.62 174.553 234.342 181.824 234.342 190.794C234.342 199.763 241.62 207.035 250.599 207.035Z" fill="#FFB6B6"/>
<path d="M267.674 258.947L235.514 263.149L236.115 267.738L268.274 263.537L267.674 258.947Z" fill="#3F3D56"/>
<path d="M192.378 264.532C192.685 264.731 192.976 264.954 193.249 265.198L225.057 257.098L227.227 249.432L239.236 251.191L236.715 265.135C236.511 266.262 235.947 267.292 235.108 268.071C234.268 268.85 233.198 269.336 232.059 269.456L194.919 273.363C194.313 274.636 193.334 275.695 192.112 276.399C190.889 277.103 189.481 277.418 188.075 277.303C186.669 277.188 185.331 276.648 184.24 275.755C183.148 274.862 182.355 273.658 181.965 272.303C181.575 270.948 181.607 269.507 182.057 268.171C182.507 266.835 183.354 265.668 184.484 264.824C185.615 263.981 186.975 263.501 188.385 263.449C189.795 263.397 191.188 263.775 192.378 264.532Z" fill="#FFB6B6"/>
<path d="M241.304 221.682L235.677 217.384C234.156 216.808 232.072 218.445 231.706 220.029L223.763 252.43L240.311 264.333L242.627 260.696L241.304 221.682Z" fill="#3F3D56"/>
<g opacity="0.2">
<path d="M273.584 237.486C272.18 238.043 270.749 238.528 269.295 238.941C268.832 239.08 268.355 239.212 267.886 239.337C264.788 240.196 261.604 240.711 258.394 240.872C257.012 240.93 255.627 240.892 254.25 240.759C252.772 240.612 251.312 240.324 249.888 239.899C249.842 239.886 249.789 239.873 249.743 239.86C246.783 239.02 244.07 237.48 241.833 235.37C241.333 234.884 240.867 234.365 240.436 233.816C239.2 232.304 238.294 230.551 237.774 228.669C237.254 226.787 237.133 224.817 237.418 222.886C237.473 222.536 237.549 222.189 237.643 221.847C237.893 220.917 238.223 220.01 238.629 219.136C238.808 218.726 239.007 218.323 239.219 217.926L246.698 215.4H260.942L270.771 218.105L271.433 218.145L271.446 218.29L271.751 218.376L271.599 219.646L273.584 237.486Z" fill="black"/>
</g>
<path d="M238.142 177.348C235.101 176.976 231.765 177.239 229.395 179.178C227.025 181.117 226.261 185.147 228.504 187.231C230.491 189.075 233.597 188.641 236.257 189.166C238.549 189.679 240.602 190.945 242.088 192.762C243.574 194.579 244.407 196.842 244.454 199.188C244.414 205.916 237.951 211.01 236.79 217.637C235.998 222.16 237.907 226.92 241.208 230.115C244.509 233.31 249.047 235.036 253.62 235.504C258.192 235.971 262.815 235.257 267.258 234.084C271.721 232.905 276.113 231.233 279.857 228.537C283.601 225.841 286.67 222.04 287.872 217.588C289.075 213.137 288.211 208.033 285.114 204.615C281.567 200.701 275.666 199.355 272.597 195.056C269.158 190.237 270.431 183.374 267.647 178.15C265.788 174.662 262.269 172.283 258.518 171.029C254.767 169.776 250.761 169.528 246.808 169.407C244.729 169.343 242.588 169.322 240.652 170.079C238.716 170.836 237.014 172.561 236.913 174.635C236.813 176.71 238.142 177.348 238.142 177.348Z" fill="#2F2E41"/>
<path d="M390.338 436H138.154C137.979 436 137.81 435.93 137.686 435.806C137.562 435.682 137.492 435.514 137.492 435.339C137.492 435.163 137.562 434.995 137.686 434.871C137.81 434.747 137.979 434.677 138.154 434.677H390.338C390.514 434.677 390.682 434.747 390.806 434.871C390.93 434.995 391 435.163 391 435.339C391 435.514 390.93 435.682 390.806 435.806C390.682 435.93 390.514 436 390.338 436Z" fill="#CACACA"/>
</g>
<defs>
<clipPath id="clip0_11_147">
<rect width="391" height="436" fill="white"/>
</clipPath>
</defs>
</svg>
