<svg width="358" height="262" viewBox="0 0 358 262" fill="none" xmlns="http://www.w3.org/2000/svg">
<g clip-path="url(#clip0_11_209)">
<path d="M199.826 257.852C270.97 257.852 328.644 200.13 328.644 128.926C328.644 57.7221 270.97 0 199.826 0C128.681 0 71.0073 57.7221 71.0073 128.926C71.0073 200.13 128.681 257.852 199.826 257.852Z" fill="#F2F2F2"/>
<path d="M239.197 80.536C257.698 80.536 272.697 65.5251 272.697 47.0083C272.697 28.4915 257.698 13.4807 239.197 13.4807C220.696 13.4807 205.697 28.4915 205.697 47.0083C205.697 65.5251 220.696 80.536 239.197 80.536Z" fill="#FF6584"/>
<path d="M98.7598 25.0536L99.6755 44.1597C103.471 49.2265 107.566 55.0247 111.608 61.3439L112.185 32.1956L112.503 32.3993C107.828 29.057 103.076 26.4998 98.4414 24.8765L98.7598 25.0536Z" fill="#6C63FF"/>
<path d="M99.008 43.2721L98.1211 24.7646C92.9161 22.9879 87.8658 22.3986 83.2494 23.2225C83.0093 23.2654 82.7732 23.3147 82.5376 23.3648C83.7106 24.6242 90.546 32.0623 99.008 43.2721Z" fill="#6C63FF"/>
<path d="M141.036 66.0663L141.343 66.3597C140.081 63.9851 138.744 61.6764 137.331 59.4336L128.723 93.3319L128.578 93.2034C129.2 94.6905 129.792 96.1674 130.353 97.6343L141.036 66.0663Z" fill="#6C63FF"/>
<path d="M127.922 46.7946L128.239 47.0485C123.688 41.6518 118.515 36.8135 112.827 32.6348L112.238 62.3385C115.999 68.2786 119.366 74.1294 122.34 79.8911L127.922 46.7946Z" fill="#6C63FF"/>
<path d="M65.4805 56.0682C65.9641 61.0748 66.9519 66.0197 68.4288 70.8275L119.76 76.1265C117.08 71.1808 114.314 66.5408 111.628 62.3119L65.611 56.4721L65.4805 56.0682Z" fill="#6C63FF"/>
<path d="M70.2961 76.3718L70.1579 75.9687L122.11 80.5903C121.482 79.3617 120.847 78.1493 120.206 76.9532L68.6852 71.6347L68.5498 71.231C69.0691 72.9256 69.6512 74.6392 70.2961 76.3718Z" fill="#6C63FF"/>
<path d="M136.746 58.7269L137.059 59.0025C134.483 54.9481 131.637 51.0724 128.54 47.4016L122.882 80.9457C124.843 84.7989 126.619 88.5979 128.21 92.3427L136.746 58.7269Z" fill="#6C63FF"/>
<path d="M135.647 114.761C137.712 123.703 138.494 132.158 137.978 140.032C140.883 133.837 151.932 108.171 147.802 84.252L135.647 114.761Z" fill="#6C63FF"/>
<path d="M79.8267 94.4501C82.5756 98.156 85.5695 101.673 88.7884 104.979L88.663 104.531L134.876 114.046C133.673 109.052 132.173 104.136 130.382 99.3225L79.8267 94.4501Z" fill="#6C63FF"/>
<path d="M98.6092 43.5842C89.4509 31.4584 82.2246 23.7943 82.1207 23.6846L82.2397 23.4291C75.29 25.0082 70.383 29.7406 67.6831 36.5904L98.6092 43.5842Z" fill="#6C63FF"/>
<path d="M130.781 98.7721C130.951 99.2283 131.125 99.6855 131.29 100.14C132.877 104.491 134.226 108.926 135.331 113.424L147.37 83.2047L147.664 83.4999C146.902 79.2949 145.611 75.2034 143.821 71.3232C143.111 69.8018 142.367 68.3034 141.591 66.8279L130.781 98.7721Z" fill="#6C63FF"/>
<path d="M111.09 61.4693C107.09 55.2247 103.042 49.4962 99.2895 44.489L67.6538 37.3345L67.5466 36.9349C65.5716 42.1402 64.8495 48.5349 65.4477 55.677L111.09 61.4693Z" fill="#6C63FF"/>
<path d="M135.063 114.839L89.1885 105.394C108.484 125.218 135.48 140.422 137.203 141.383C138.007 132.649 137.095 123.677 135.063 114.839Z" fill="#6C63FF"/>
<path d="M130.057 98.5086L130.067 98.4784C127.862 92.6583 125.344 86.9614 122.526 81.4123L70.4468 76.7792C71.331 79.1225 72.3303 81.491 73.4447 83.8846C75.0678 87.2946 76.9984 90.5494 79.2123 93.6084L130.057 98.5086Z" fill="#6C63FF"/>
<path d="M196.305 89.4083L184.834 104.708C184.528 111.034 183.987 118.113 183.073 125.56L202.093 103.479L202.208 103.839C200.738 98.2805 198.707 93.2774 196.172 89.0687L196.305 89.4083Z" fill="#6C63FF"/>
<path d="M184.886 103.598L195.997 88.7781C193.121 84.0871 189.606 80.4093 185.526 78.0971C185.314 77.9768 185.1 77.8641 184.887 77.7523C184.988 79.4711 185.512 89.5632 184.886 103.598Z" fill="#6C63FF"/>
<path d="M202.728 147.983L202.778 148.405C203.32 145.771 203.761 143.139 204.102 140.51L175.87 161.123L175.84 160.931C175.371 162.473 174.886 163.989 174.383 165.477L202.728 147.983Z" fill="#6C63FF"/>
<path d="M204.91 124.769L204.993 125.167C204.927 118.105 204.026 111.076 202.308 104.227L182.925 126.729C182.036 133.705 180.901 140.36 179.519 146.696L204.91 124.769Z" fill="#6C63FF"/>
<path d="M150.909 92.0517C148.09 96.2164 145.7 100.655 143.773 105.301L179.931 142.149C181.019 136.63 181.845 131.29 182.472 126.319L150.752 92.4461L150.909 92.0517Z" fill="#6C63FF"/>
<path d="M141.678 110.764L141.829 110.365L178.896 147.088C179.196 145.741 179.48 144.402 179.748 143.071L143.456 106.087L143.609 105.689C142.929 107.326 142.286 109.017 141.678 110.764Z" fill="#6C63FF"/>
<path d="M204.102 139.592L204.167 140.003C204.767 135.237 205.045 130.435 204.999 125.63L179.264 147.854C178.319 152.074 177.266 156.133 176.105 160.033L204.102 139.592Z" fill="#6C63FF"/>
<path d="M167.547 182.047C163.438 190.252 158.653 197.264 153.237 202.999C159.423 200.082 184.288 187.367 196.351 166.308L167.547 182.047Z" fill="#6C63FF"/>
<path d="M137.498 130.771C137.253 135.38 137.318 140 137.69 144.601L137.879 144.175L167.408 181.004C169.664 176.39 171.642 171.646 173.33 166.796L137.498 130.771Z" fill="#6C63FF"/>
<path d="M184.38 103.584C185.053 88.3989 184.372 77.8833 184.362 77.7324L184.616 77.6117C178.257 74.3915 171.462 74.904 165.018 78.4562L184.38 103.584Z" fill="#6C63FF"/>
<path d="M173.988 166.626C173.828 167.086 173.671 167.549 173.508 168.004C171.957 172.369 170.17 176.646 168.155 180.816L196.685 165.226L196.724 165.641C198.817 161.916 200.429 157.94 201.524 153.809C201.946 152.184 202.329 150.556 202.671 148.924L173.988 166.626Z" fill="#6C63FF"/>
<path d="M182.595 125.327C183.494 117.964 184.026 110.967 184.327 104.716L164.521 79.0108L164.693 78.6346C159.855 81.3829 155.224 85.8471 151.133 91.7297L182.595 125.327Z" fill="#6C63FF"/>
<path d="M167.046 181.734L137.733 145.176C139.961 172.762 151.064 201.704 151.779 203.544C157.964 197.33 162.979 189.839 167.046 181.734Z" fill="#6C63FF"/>
<path d="M173.598 165.961L173.625 165.945C175.636 160.054 177.327 154.059 178.693 147.987L141.535 111.174C140.722 113.543 139.983 116.005 139.316 118.56C138.393 122.222 137.805 125.961 137.561 129.731L173.598 165.961Z" fill="#6C63FF"/>
<path d="M81.9322 109.835L88.7038 127.722C93.8785 131.367 99.5636 135.614 105.359 140.374L96.9053 112.474L97.271 112.57C91.7929 110.837 86.4837 109.875 81.5747 109.765L81.9322 109.835Z" fill="#6C63FF"/>
<path d="M87.7949 127.085L81.2357 109.758C75.7368 109.678 70.7518 110.68 66.616 112.892C66.4008 113.007 66.1915 113.127 65.9829 113.247C67.4874 114.082 76.2853 119.042 87.7949 127.085Z" fill="#6C63FF"/>
<path d="M134.804 135.761L135.187 135.945C133.254 134.077 131.269 132.295 129.233 130.599L131.516 165.501L131.337 165.423C132.389 166.645 133.408 167.867 134.394 169.088L134.804 135.761Z" fill="#6C63FF"/>
<path d="M116.381 121.49L116.761 121.633C110.766 117.909 104.352 114.908 97.6519 112.693L106.266 141.125C111.677 145.61 116.687 150.133 121.294 154.693L116.381 121.49Z" fill="#6C63FF"/>
<path d="M59.8608 149.626C61.867 154.238 64.3336 158.635 67.223 162.751L117.677 151.911C113.601 148.036 109.537 144.479 105.677 141.288L60.1097 149.97L59.8608 149.626Z" fill="#6C63FF"/>
<path d="M70.7114 167.446L70.4554 167.105L121.29 155.429C120.314 154.454 119.336 153.498 118.356 152.559L67.7164 163.439L67.4629 163.097C68.4801 164.548 69.5629 165.997 70.7114 167.446Z" fill="#6C63FF"/>
<path d="M128.458 130.108L128.84 130.274C125.139 127.215 121.235 124.409 117.156 121.876L122.135 155.528C125.19 158.586 128.052 161.649 130.722 164.718L128.458 130.108Z" fill="#6C63FF"/>
<path d="M144.719 183.738C149.444 191.603 152.799 199.402 154.74 207.051C155.59 200.26 158.17 172.434 146.855 150.963L144.719 183.738Z" fill="#6C63FF"/>
<path d="M85.3584 181.69C89.1172 184.364 93.0509 186.783 97.1329 188.931L96.8753 188.544L143.764 183.297C141.078 178.92 138.133 174.708 134.943 170.685L85.3584 181.69Z" fill="#6C63FF"/>
<path d="M87.512 127.505C75.0573 118.806 65.8179 113.753 65.6852 113.681L65.7195 113.401C59.5977 117.052 56.3926 123.071 55.9404 130.421L87.512 127.505Z" fill="#6C63FF"/>
<path d="M135.152 170.038C135.455 170.419 135.762 170.8 136.059 171.181C138.912 174.828 141.565 178.629 144.005 182.565L146.122 150.101L146.493 150.29C144.469 146.527 141.977 143.035 139.077 139.899C137.931 138.672 136.762 137.477 135.567 136.314L135.152 170.038Z" fill="#6C63FF"/>
<path d="M104.906 140.653C99.173 135.952 93.5536 131.756 88.4386 128.155L56.1425 131.137L55.9171 130.791C55.6465 136.352 56.9347 142.657 59.7093 149.264L104.906 140.653Z" fill="#6C63FF"/>
<path d="M144.187 183.994L97.6416 189.202C122.115 202.087 152.484 208.195 154.42 208.575C152.487 200.02 148.849 191.77 144.187 183.994Z" fill="#6C63FF"/>
<path d="M134.383 170.011L134.383 169.979C130.488 165.126 126.335 160.487 121.941 156.082L70.981 167.786C72.5456 169.741 74.2274 171.685 76.0265 173.616C78.6233 176.357 81.4645 178.856 84.5148 181.08L134.383 170.011Z" fill="#6C63FF"/>
<path d="M358 219.14C358 234.602 278.524 262 180.486 262C82.4482 262 2.97266 234.602 2.97266 219.14C2.97266 203.677 82.4482 206.005 180.486 206.005C278.524 206.005 358 203.677 358 219.14Z" fill="#3F3D56"/>
<path opacity="0.1" d="M358 219.14C358 234.602 278.524 262 180.486 262C82.4482 262 2.97266 234.602 2.97266 219.14C2.97266 203.677 82.4482 206.005 180.486 206.005C278.524 206.005 358 203.677 358 219.14Z" fill="black"/>
<path d="M180.486 247.137C278.524 247.137 358 234.602 358 219.14C358 203.677 278.524 191.143 180.486 191.143C82.4482 191.143 2.97266 203.677 2.97266 219.14C2.97266 234.602 82.4482 247.137 180.486 247.137Z" fill="#3F3D56"/>
<path opacity="0.1" d="M211.262 189.877C211.262 206.723 187.801 201.512 159.074 201.512C130.348 201.512 107.235 206.723 107.235 189.877C107.235 173.031 130.693 169.367 159.42 169.367C188.146 169.367 211.262 173.031 211.262 189.877Z" fill="black"/>
<path d="M211.262 185.729C211.262 202.575 187.801 197.364 159.074 197.364C130.348 197.364 107.235 202.575 107.235 185.729C107.235 168.883 130.693 165.219 159.42 165.219C188.146 165.219 211.262 168.883 211.262 185.729Z" fill="#3F3D56"/>
<path d="M118.851 139.376C119.483 138.926 120.18 138.576 120.918 138.338C125.6 136.595 130.504 135.526 135.486 135.164C139.818 134.857 144.513 135.222 147.896 137.947C148.422 138.333 148.853 138.835 149.155 139.414C149.58 140.334 149.451 141.402 149.314 142.406C149.283 142.795 149.185 143.176 149.024 143.532C148.568 144.4 147.448 144.704 146.474 144.6C145.5 144.496 144.587 144.083 143.626 143.892C143.032 143.789 142.431 143.727 141.828 143.709L135.805 143.383C132.06 143.18 128.265 142.98 124.591 143.737C123.46 143.94 122.368 144.317 121.352 144.854C120.512 145.325 119.947 146.002 119.169 145.131C117.801 143.601 117.044 140.789 118.851 139.376Z" fill="#2F2E41"/>
<path d="M128.184 142.041C128.184 142.041 136.285 138.407 139.358 142.601C142.431 146.794 137.682 145.117 137.682 145.117L132.374 146.794L126.508 145.676L128.184 142.041Z" fill="#F2F2F2"/>
<path d="M128.603 139.385C128.603 139.385 129.72 144.697 128.882 146.095C128.044 147.493 133.631 149.45 133.631 149.45L138.938 147.214C138.938 147.214 137.542 138.547 138.938 136.869L128.603 139.385Z" fill="#FFB9B9"/>
<path opacity="0.1" d="M128.603 139.385C128.603 139.385 129.72 144.697 128.882 146.095C128.044 147.493 133.631 149.45 133.631 149.45L138.938 147.214C138.938 147.214 137.542 138.547 138.938 136.869L128.603 139.385Z" fill="black"/>
<path d="M123.368 203.259C124.119 204.818 124.737 206.437 125.214 208.101C125.222 208.156 125.241 208.208 125.271 208.255C125.3 208.302 125.339 208.342 125.386 208.373C125.432 208.404 125.484 208.424 125.539 208.434C125.593 208.443 125.649 208.44 125.703 208.426L130.672 208.421C131.285 208.42 132.108 208.223 132.101 207.609C132.097 207.178 131.656 206.909 131.329 206.629C130.419 205.852 130.182 204.572 129.805 203.436C129.073 201.248 127.662 199.351 125.778 198.022C125.523 197.822 125.23 197.677 124.917 197.596C124.602 197.55 124.281 197.568 123.973 197.647C123.101 197.823 119.843 198.426 120.459 199.696C120.724 200.242 121.705 200.812 122.117 201.322C122.597 201.925 123.016 202.574 123.368 203.259Z" fill="#575A89"/>
<path d="M140.647 197.491C140.472 197.86 140.277 198.219 140.063 198.566C139.343 199.754 138.493 200.863 137.823 202.08C137.371 202.823 137.092 203.659 137.007 204.525C136.968 204.958 137.035 205.393 137.2 205.795C137.365 206.198 137.624 206.554 137.955 206.835C138.676 207.383 139.665 207.408 140.562 207.281C141.458 207.153 142.349 206.896 143.252 206.964C142.948 205.24 144.401 203.722 144.764 202.009C144.866 201.528 144.881 201.03 145.018 200.557C145.165 200.125 145.354 199.709 145.58 199.313C146.304 197.903 146.815 196.393 147.098 194.834C147.132 194.644 142.681 194.613 142.263 194.704C140.961 194.986 141.151 196.41 140.647 197.491Z" fill="#575A89"/>
<path d="M106.34 170.404C105.069 172.395 105.362 175.032 106.255 177.218C107.147 179.405 108.568 181.337 109.54 183.489C110.159 184.861 110.594 186.316 111.292 187.65C112.156 189.302 113.418 190.758 113.998 192.529C114.368 193.659 114.452 194.897 115.051 195.923C115.413 196.472 115.826 196.985 116.285 197.455C117.575 198.934 118.543 200.665 119.129 202.539C119.676 200.907 121.315 199.837 122.998 199.484C124.681 199.131 126.426 199.371 128.128 199.612C127.178 198.139 126.219 196.647 125.653 194.988C125.105 193.384 124.944 191.677 124.575 190.022C123.818 186.629 122.202 183.499 120.603 180.413L128.826 179.76C130.168 179.625 131.517 179.575 132.866 179.61C134.988 179.711 137.068 180.231 139.179 180.472C141.29 180.713 143.523 180.65 145.405 179.661C141.807 184.828 139.933 191 140.052 197.296C140.856 196.672 141.789 196.237 142.783 196.021C143.777 195.805 144.807 195.814 145.797 196.048C146.787 196.282 147.712 196.734 148.505 197.372C149.298 198.01 149.938 198.817 150.378 199.735C153.601 195.328 153.218 189.192 155.771 184.365C156.296 183.373 156.94 182.448 157.507 181.479C158.577 179.532 159.494 177.505 160.249 175.415C160.963 173.586 161.682 171.552 160.997 169.712C160.713 169.014 160.299 168.377 159.777 167.833C158.303 166.208 156.252 165.005 154.06 164.955C150.694 164.878 147.914 167.375 144.962 168.994C141.437 170.869 137.451 171.696 133.472 171.379C129.417 171.091 125.544 169.763 121.68 168.593C119.747 167.98 117.783 167.473 115.795 167.073C114.138 166.762 112.56 167.107 110.928 167.531C109.15 167.993 107.363 168.802 106.34 170.404Z" fill="#2F2E41"/>
<path d="M141.453 134.073C141.451 136.297 140.567 138.43 138.996 140.002C137.425 141.575 135.294 142.459 133.072 142.461C132.573 142.462 132.074 142.417 131.583 142.327C130.015 142.043 128.56 141.318 127.389 140.236C126.218 139.154 125.379 137.761 124.971 136.219C124.564 134.677 124.604 133.05 125.087 131.53C125.57 130.01 126.476 128.66 127.699 127.637C128.922 126.614 130.411 125.962 131.992 125.756C133.572 125.55 135.178 125.8 136.622 126.476C138.066 127.151 139.287 128.225 140.143 129.571C140.998 130.916 141.453 132.478 141.453 134.073Z" fill="#FFB9B9"/>
<path d="M128.184 142.041C128.184 142.041 129.72 142.74 130.279 143.3C130.838 143.859 132.514 146.934 135.307 144.977C138.101 143.02 138.38 141.902 139.218 141.902C140.056 141.902 141.173 143.579 141.173 143.579L148.855 166.645C146.785 168.984 144.385 171.008 141.732 172.656C137.263 175.451 131.955 176.849 129.441 175.731C126.927 174.613 122.178 173.774 121.34 171.537C120.502 169.301 119.105 162.591 119.105 162.591L123.016 145.536L128.184 142.041Z" fill="#F2F2F2"/>
<path d="M127.105 165.369C127.714 164.053 127.802 162.562 127.854 161.112C127.936 159.676 127.898 158.236 127.74 156.806C127.493 154.936 126.884 153.134 126.5 151.287C126.163 149.668 125.999 148.016 126.011 146.362C126.017 145.607 126.072 144.812 126.483 144.179C126.769 143.738 127.218 143.396 127.397 142.9C127.748 141.929 126.88 140.913 125.929 140.513C124.77 140.078 123.503 140.027 122.313 140.367C121.133 140.709 119.992 141.176 118.911 141.76C118.094 142.109 117.342 142.595 116.689 143.198C115.822 144.096 115.44 145.347 115.133 146.557C114.886 147.526 114.667 148.536 114.855 149.518C115.159 151.112 116.458 152.311 117.15 153.779C117.954 155.483 117.9 157.47 117.58 159.327C117.26 161.185 116.693 163.001 116.518 164.878C116.343 166.754 116.611 168.772 117.786 170.245C118.265 170.845 119.564 172.268 120.44 172.107C121.128 171.981 122.127 170.464 122.681 169.983C124.284 168.594 126.185 167.358 127.105 165.369Z" fill="#2F2E41"/>
<path d="M141.741 141.13C141.765 142.689 141.079 144.171 140.271 145.505C139.463 146.838 138.514 148.1 137.919 149.541C137.18 151.345 137.029 153.337 137.488 155.232C137.659 155.878 137.864 156.514 138.104 157.137L139.635 161.338C139.841 161.999 140.139 162.627 140.522 163.203C140.868 163.645 141.274 164.036 141.728 164.365C142.891 165.304 144.229 166.003 145.664 166.42C147.109 166.833 148.651 166.745 150.04 166.17C150.188 160.474 151.102 154.823 152.759 149.372C153.065 148.366 153.399 147.306 153.163 146.281C152.899 145.133 151.977 144.271 151.101 143.484C148.422 141.076 145.476 138.547 141.891 138.222C139.815 138.035 141.723 140.002 141.741 141.13Z" fill="#2F2E41"/>
<path d="M123.409 173.635C123.621 174.051 123.753 174.505 123.963 174.922C124.274 175.482 124.657 175.998 125.103 176.456C126.971 178.529 129.254 180.594 132.04 180.719C132.317 180.745 132.596 180.709 132.858 180.616C133.094 180.495 133.296 180.318 133.448 180.101C133.599 179.884 133.696 179.633 133.728 179.37C133.926 178.288 133.448 177.207 132.97 176.216C131.934 174.068 130.768 171.865 128.827 170.48C127.859 169.816 126.752 169.38 125.59 169.205C124.429 169.03 123.243 169.121 122.122 169.47C121.111 169.782 119.435 170.326 120.773 171.249C121.788 171.949 122.82 172.482 123.409 173.635Z" fill="#FFB9B9"/>
<path d="M135.453 146.286C135.162 145.5 134.716 144.781 134.142 144.17C133.562 143.68 132.877 143.333 132.139 143.155C131.184 142.882 130.195 142.74 129.201 142.734C128.018 142.726 126.647 143.044 126.144 144.116C125.745 144.967 126.055 145.975 126.456 146.825C126.628 147.266 126.914 147.652 127.284 147.945C127.795 148.29 128.454 148.279 129.059 148.395C129.997 148.633 130.885 149.036 131.682 149.584L133.754 150.838L137.314 152.991C137.22 152.934 137.253 150.491 137.144 150.091C136.792 148.801 135.999 147.507 135.453 146.286Z" fill="#FFB9B9"/>
<path d="M125.085 207.468C124.252 208.6 124.419 210.219 123.681 211.416C123.042 212.454 121.837 212.998 121.037 213.917C120.782 214.223 120.554 214.55 120.357 214.896C119.615 216.14 119.012 217.734 119.743 218.985C120.33 219.99 121.566 220.384 122.699 220.652C124.131 220.99 125.62 221.261 127.068 221.003C128.517 220.744 129.933 219.856 130.45 218.477C130.551 218.13 130.672 217.789 130.811 217.455C131.597 215.908 134.06 215.891 134.863 214.354C135.426 213.278 134.909 211.977 134.392 210.878L132.814 207.522C132.29 206.408 130.166 207.049 129.059 206.782C127.616 206.434 126.123 206.05 125.085 207.468Z" fill="#2F2E41"/>
<path d="M137.293 204.585C136.647 205.094 136.153 205.771 135.865 206.543C135.084 208.346 134.816 210.324 134.555 212.272C134.407 213.047 134.391 213.842 134.51 214.622C134.847 216.213 136.287 217.385 137.838 217.872C139.389 218.358 141.052 218.283 142.675 218.204C143.199 218.217 143.719 218.111 144.196 217.895C145.012 217.444 145.331 216.386 145.191 215.464C145.051 214.543 144.548 213.722 144.055 212.931C143.563 212.14 143.059 211.32 142.918 210.398C142.681 208.848 143.35 206.572 142.399 205.17C141.445 203.764 138.566 203.692 137.293 204.585Z" fill="#2F2E41"/>
<path d="M141.242 129.702C141.093 129.201 140.764 128.772 140.319 128.497C140.342 127.96 140.276 127.422 140.124 126.907C139.617 125.405 138.415 125.491 137.28 124.827C136.788 124.539 136.819 124.284 136.562 123.811C136.227 123.191 135.724 122.678 135.111 122.329C134.383 121.865 133.615 121.387 132.754 121.329C130.945 121.205 129.557 122.908 127.828 123.455C127.066 123.696 126.247 123.706 125.481 123.934C124.714 124.161 123.95 124.705 123.836 125.497C123.783 125.863 123.876 126.238 123.822 126.603C123.716 127.329 123.079 127.838 122.653 128.435C121.711 129.757 121.818 131.623 122.572 133.06C122.731 133.358 122.913 133.642 123.116 133.912C123.179 134.591 123.374 135.252 123.69 135.856C124.443 137.294 125.74 138.368 127.095 139.26C126.984 138.783 126.917 138.298 126.894 137.809C126.875 137.646 126.896 137.48 126.956 137.328C127.107 137.012 127.506 136.928 127.81 136.755C128.439 136.397 128.686 135.604 128.704 134.88C128.723 134.155 128.569 133.43 128.645 132.709C128.648 132.543 128.686 132.38 128.756 132.229C128.825 132.079 128.926 131.945 129.051 131.836C129.283 131.703 129.549 131.64 129.816 131.653C131.106 131.601 132.454 131.577 133.592 130.966C133.959 130.722 134.353 130.523 134.767 130.371C135.734 130.119 136.723 130.797 137.28 131.628C137.837 132.458 138.115 133.446 138.629 134.304C139.144 135.161 140.032 135.926 141.026 135.825C141.082 135.825 141.138 135.813 141.189 135.79C141.24 135.768 141.286 135.734 141.323 135.692C141.366 135.615 141.385 135.527 141.378 135.439L141.433 131.636C141.48 130.985 141.415 130.331 141.242 129.702Z" fill="#2F2E41"/>
<path d="M114.72 149.599C113.921 150.779 112.999 151.915 112.559 153.271C112.301 154.069 112.221 154.912 112.034 155.729C111.411 158.451 109.611 160.868 109.43 163.654C109.367 164.274 109.458 164.899 109.695 165.474C110.211 166.598 111.446 167.19 112.625 167.563C113.804 167.936 115.069 168.204 116.01 169.006C116.483 169.461 116.913 169.959 117.293 170.495C118.827 172.405 120.892 173.819 123.227 174.558C123.043 173.286 122.956 171.753 123.972 170.967C124.522 170.541 125.257 170.465 125.95 170.405L129.223 170.122C127.04 168.003 124.635 166.128 122.048 164.528C121.143 163.969 120.158 163.378 119.745 162.397C119.531 161.765 119.443 161.097 119.484 160.431C119.461 157.995 119.255 155.564 118.867 153.159C118.598 151.489 118.241 149.833 117.833 148.192C117.718 147.731 117.041 145.664 116.208 146.147C116.012 146.261 115.828 147.573 115.713 147.845C115.44 148.461 115.108 149.048 114.72 149.599Z" fill="#2F2E41"/>
<path d="M152.418 145.137L153.755 147.919C154.399 149.063 154.692 150.372 154.598 151.681L154.677 160.027C154.739 161.142 154.646 162.26 154.403 163.35C154.319 163.709 154.163 164.047 153.942 164.343C153.715 164.597 153.448 164.812 153.151 164.98C150.622 166.562 147.341 167.461 144.669 166.135C144.057 165.809 143.475 165.429 142.93 164.999C141.864 164.21 140.783 163.405 139.987 162.345C139.153 161.235 138.675 159.907 138.114 158.637C137.107 156.359 135.806 154.224 134.244 152.284C133.985 152.028 133.817 151.694 133.764 151.334C133.748 150.602 134.615 150.242 135.291 149.964C136.446 149.488 137.536 148.571 137.729 147.336C140.185 150.56 142.896 153.966 146.772 155.144C146.833 155.183 146.903 155.205 146.975 155.207C147.047 155.209 147.118 155.192 147.182 155.157C147.245 155.122 147.297 155.07 147.333 155.008C147.369 154.945 147.388 154.874 147.387 154.802C147.607 153.881 147.685 152.932 147.846 151.998C148.141 150.298 148.71 148.658 149.529 147.14C149.988 146.289 151.475 143.173 152.418 145.137Z" fill="#2F2E41"/>
<path opacity="0.1" d="M119.25 153.183C119.287 155.158 118.868 157.115 118.025 158.901C117.806 159.296 117.644 159.72 117.545 160.16C117.399 161.1 117.933 162.01 118.544 162.739C119.749 164.173 121.312 165.261 123.074 165.893" fill="black"/>
<path opacity="0.1" d="M148.275 151.518C148.078 152.048 148.256 152.634 148.408 153.179C148.848 154.759 149.053 156.395 149.018 158.035C149.024 158.064 149.023 158.094 149.015 158.122C149.007 158.15 148.992 158.176 148.972 158.197C148.951 158.218 148.926 158.234 148.898 158.242C148.87 158.251 148.84 158.253 148.811 158.247C148.166 158.287 147.428 158.291 146.991 157.815" fill="black"/>
<path opacity="0.1" d="M257.847 230.546C281.879 230.546 301.362 226.368 301.362 221.214C301.362 216.06 281.879 211.881 257.847 211.881C233.814 211.881 214.332 216.06 214.332 221.214C214.332 226.368 233.814 230.546 257.847 230.546Z" fill="black"/>
<path d="M279.604 137.913L276.496 141.024L279.604 144.135L282.712 137.913H279.604Z" fill="#A0616A"/>
<path d="M280.304 110.939C281.176 111.296 281.591 112.273 281.92 113.157L285.952 124L286.737 126.111C287.122 127.146 287.507 128.182 287.832 129.237C288.038 129.904 288.22 130.579 288.377 131.26C288.541 131.843 288.604 132.449 288.563 133.053C288.454 133.718 288.212 134.354 287.851 134.922C286.448 137.367 284.45 139.418 282.043 140.883C281.904 139.987 281.543 139.139 280.993 138.419C280.442 137.698 279.72 137.127 278.891 136.758L280.976 135.61C281.417 135.403 281.814 135.112 282.145 134.754C282.347 134.474 282.49 134.157 282.567 133.82C282.643 133.484 282.652 133.136 282.591 132.796C282.466 132.119 282.258 131.459 281.972 130.832C281.272 129.085 280.665 127.302 280.153 125.491C279.851 124.419 279.572 123.318 278.972 122.381C278.428 121.53 277.639 120.85 277.145 119.97C276.391 118.628 276.41 116.976 276.743 115.473C277.024 114.204 277.495 112.983 277.892 111.748C278.204 110.777 279.37 110.556 280.304 110.939Z" fill="#D0CDE1"/>
<path d="M261.08 81.9679C259.477 82.5098 258.024 83.7773 257.696 85.4387C257.544 86.2088 257.637 87.0094 257.509 87.784C257.212 89.5803 255.803 90.9521 254.504 92.2264C253.204 93.5006 251.863 94.9813 251.768 96.7995C251.664 98.7905 253.107 100.656 252.857 102.634C252.567 104.932 250.142 106.421 249.542 108.658C249.142 110.152 249.632 111.761 250.439 113.08C251.977 115.594 254.606 117.301 257.406 118.215C260.205 119.13 263.187 119.323 266.132 119.353C269.717 119.391 273.61 119.083 276.304 116.715C277.843 115.35 278.81 113.453 279.01 111.405C279.266 108.661 278.122 105.826 278.911 103.186C279.408 101.525 280.653 100.008 280.467 98.2837C280.286 96.5979 278.814 95.403 277.805 94.0412C276.863 92.7697 276.291 91.2681 275.731 89.7877L273.813 84.7223C273.437 83.7266 273.023 82.6793 272.183 82.0258C270.61 80.8023 268.082 81.0427 266.243 81.295C264.537 81.5292 262.721 81.4135 261.08 81.9679Z" fill="#2F2E41"/>
<path d="M262.564 98.661C262.564 98.661 262.751 104.296 262.188 104.859C261.625 105.423 264.44 109.179 264.44 109.179L269.507 108.992L272.135 106.926L269.883 103.92C269.883 103.92 268.944 99.0367 269.695 97.9097C270.446 96.7827 262.564 98.661 262.564 98.661Z" fill="#A0616A"/>
<path opacity="0.1" d="M262.564 98.661C262.564 98.661 262.751 104.296 262.188 104.859C261.625 105.423 264.44 109.179 264.44 109.179L269.507 108.992L272.135 106.926L269.883 103.92C269.883 103.92 268.944 99.0367 269.695 97.9097C270.446 96.7827 262.564 98.661 262.564 98.661Z" fill="black"/>
<path d="M250.834 142.143L254.024 149.281L256.464 146.276L251.585 139.889L250.834 142.143Z" fill="#A0616A"/>
<path d="M242.295 213.612L240.981 220.938L238.729 224.131L240.043 224.882L242.295 224.506L244.922 223.567L246.048 219.247L248.113 213.612H242.295Z" fill="#A0616A"/>
<path d="M266.317 209.104L265.566 219.623L267.443 221.126L270.446 218.496V210.795L266.317 209.104Z" fill="#A0616A"/>
<path d="M265.66 100.821C269.391 100.821 272.416 97.7937 272.416 94.0592C272.416 90.3247 269.391 87.2974 265.66 87.2974C261.929 87.2974 258.904 90.3247 258.904 94.0592C258.904 97.7937 261.929 100.821 265.66 100.821Z" fill="#A0616A"/>
<path d="M270.874 103.154C270.671 103.056 270.45 103.004 270.226 102.999C270.001 102.995 269.778 103.039 269.572 103.129C269.162 103.311 268.764 103.518 268.381 103.75C267.395 104.264 266.277 104.467 265.173 104.334C265.044 104.324 264.917 104.292 264.798 104.238C264.673 104.16 264.558 104.066 264.455 103.96C264.055 103.635 263.544 103.478 263.03 103.522C262.517 103.566 262.04 103.809 261.702 104.198C261.503 104.445 261.368 104.741 261.151 104.972C260.59 105.572 259.665 105.597 258.844 105.595C257.141 105.548 255.439 105.704 253.774 106.06C252.101 106.422 250.561 107.239 249.322 108.421C248.984 108.739 248.715 109.123 248.532 109.55C248.305 110.134 248.335 110.791 248.131 111.383C247.905 112.044 247.403 112.585 247.199 113.253C247.046 113.756 247.068 114.316 246.812 114.775C247.908 115.725 248.837 116.992 249.934 117.942C250.66 118.571 251.421 119.252 251.694 120.173C251.816 120.741 251.871 121.322 251.856 121.903C251.992 124.682 253.497 127.202 255.181 129.415C255.642 130.072 256.195 130.659 256.822 131.16C257.673 131.74 258.639 132.128 259.654 132.298C261.572 132.691 263.545 132.689 265.502 132.669C267.524 132.649 269.582 132.606 271.505 131.977C272.483 131.704 273.363 131.157 274.042 130.401C274.833 129.429 275.141 128.023 276.22 127.386C276.481 127.266 276.728 127.118 276.958 126.945C277.177 126.706 277.333 126.416 277.41 126.101C277.787 124.921 277.995 123.693 278.027 122.455C277.999 121.712 278.05 120.968 278.177 120.236C278.364 119.59 278.636 118.972 278.986 118.399L281.221 114.341C281.403 114.011 281.356 113.526 281.372 113.15C281.356 112.607 281.189 112.08 280.891 111.626C279.442 109.061 277.164 107.066 274.432 105.967C274.216 105.894 274.011 105.793 273.822 105.668C273.598 105.48 273.409 105.254 273.263 105.001C272.67 104.106 271.945 103.098 270.874 103.154Z" fill="#D0CDE1"/>
<path d="M243.012 125.253C242.571 126.326 242.247 127.443 242.046 128.586C241.831 130.164 242.085 131.771 242.777 133.205C243.982 135.687 246.354 137.37 248.028 139.563C249.583 141.6 250.51 144.041 251.856 146.222C251.621 145.667 251.907 145.024 252.291 144.56C252.676 144.096 253.167 143.711 253.449 143.178C253.641 142.766 253.761 142.323 253.805 141.87C254.006 140.518 254.115 139.049 253.426 137.868C252.908 136.98 252.012 136.389 251.303 135.644C250.594 134.886 250.072 133.972 249.781 132.975C249.49 131.978 249.437 130.927 249.626 129.905C249.762 129.202 250.013 128.528 250.201 127.837C250.434 126.908 250.61 125.966 250.729 125.016L251.574 119.207C251.799 117.661 251.989 115.951 251.115 114.658C250.944 114.387 250.708 114.164 250.429 114.009C250.197 113.903 249.951 113.833 249.699 113.803C248.779 113.652 247.533 113.249 247.084 114.236C246.542 115.426 246.164 116.724 245.711 117.952L243.012 125.253Z" fill="#D0CDE1"/>
<path d="M275.222 128.432C275.222 128.432 264.065 130.592 261.438 130.592H256.746C256.746 130.592 255.057 133.597 255.057 136.602C255.057 139.608 243.984 181.681 243.984 181.681C243.984 181.681 233.475 216.242 245.11 216.43C256.746 216.618 264.065 217.181 264.253 213.237C264.441 209.292 265.567 158.391 265.567 158.391L267.318 184.564C267.789 191.044 267.286 197.557 265.827 203.888C264.987 207.436 265.117 211.327 269.32 212.11C277.39 213.612 287.524 212.298 287.524 209.48C287.524 206.663 282.269 144.116 282.269 144.116C282.269 144.116 279.642 134.912 278.141 134.161C276.639 133.409 275.222 128.432 275.222 128.432Z" fill="#2F2E41"/>
<path d="M240.231 223.755L244.36 222.252L247.175 215.115L250.177 214.739C250.177 214.739 248.488 218.308 247.55 218.872C246.612 219.435 245.11 224.131 245.11 224.131C245.11 224.131 245.861 226.009 242.295 226.76C238.729 227.512 236.102 228.075 236.102 228.075C236.102 228.075 235.727 227.324 237.416 225.446C239.105 223.567 241.077 220.405 241.077 220.405L240.231 223.755Z" fill="#2F2E41"/>
<path d="M265.566 215.115L264.815 220.75C264.815 220.75 266.88 223.755 267.443 223.755C268.006 223.755 271.009 221.126 271.009 221.126C271.009 221.126 270.821 218.308 271.009 217.557C271.196 216.805 271.572 213.237 271.009 213.049C270.446 212.861 270.446 217.235 270.446 217.235L268.006 219.811L265.653 218.399L265.566 215.115Z" fill="#2F2E41"/>
<path d="M266.223 94.0592C270.265 94.0592 273.542 92.2933 273.542 90.1148C273.542 87.9364 270.265 86.1704 266.223 86.1704C262.181 86.1704 258.904 87.9364 258.904 90.1148C258.904 92.2933 262.181 94.0592 266.223 94.0592Z" fill="#2F2E41"/>
<path d="M0 167.521C0 189.648 13.8697 207.552 31.0099 207.552L0 167.521Z" fill="#3F3D56"/>
<path d="M31.0098 207.552C31.0098 185.177 46.4875 167.071 65.615 167.071L31.0098 207.552Z" fill="#6C63FF"/>
<path d="M11.2354 169.527C11.2354 190.545 20.0798 207.552 31.0098 207.552L11.2354 169.527Z" fill="#6C63FF"/>
<path d="M31.0098 207.552C31.0098 178.962 48.8996 155.826 71.008 155.826L31.0098 207.552Z" fill="#3F3D56"/>
<path d="M24.4863 207.835C24.4863 207.835 28.884 207.699 30.2094 206.755C31.5348 205.81 36.9742 204.682 37.303 206.197C37.6318 207.712 43.9119 213.731 38.9469 213.771C33.9819 213.811 27.4105 212.997 26.0877 212.191C24.7649 211.384 24.4863 207.835 24.4863 207.835Z" fill="#A8A8A8"/>
<path opacity="0.2" d="M39.0355 213.244C34.0705 213.284 27.4991 212.47 26.1763 211.664C25.1689 211.049 24.7675 208.846 24.6331 207.829C24.5401 207.833 24.4863 207.835 24.4863 207.835C24.4863 207.835 24.7649 211.384 26.0877 212.191C27.4105 212.997 33.9819 213.811 38.9469 213.771C40.3801 213.76 40.8752 213.249 40.848 212.494C40.6489 212.95 40.1023 213.235 39.0355 213.244Z" fill="black"/>
</g>
<defs>
<clipPath id="clip0_11_209">
<rect width="358" height="262" fill="white"/>
</clipPath>
</defs>
</svg>
