<svg width="626" height="540" viewBox="0 0 626 540" fill="none" xmlns="http://www.w3.org/2000/svg">
<g clip-path="url(#clip0_11_58)">
<path d="M19.9 538.23C19.9 538.89 20.43 539.42 21.09 539.42H750.38C751.04 539.42 751.57 538.89 751.57 538.23C751.57 537.57 751.04 537.04 750.38 537.04H21.09C20.43 537.04 19.9 537.57 19.9 538.23Z" fill="#3F3D58"/>
<path d="M253.43 95.15H19.53C10.61 95.15 3.34998 87.89 3.34998 78.97C3.34998 70.05 10.61 62.79 19.53 62.79H253.43C262.35 62.79 269.61 70.05 269.61 78.97C269.61 87.89 262.35 95.15 253.43 95.15ZM19.53 64.79C11.71 64.79 5.34998 71.15 5.34998 78.97C5.34998 86.79 11.71 93.15 19.53 93.15H253.43C261.25 93.15 267.61 86.79 267.61 78.97C267.61 71.15 261.25 64.79 253.43 64.79H19.53Z" fill="#E2E3E4"/>
<path d="M253.43 284.5H19.53C10.88 284.5 3.84998 277.47 3.84998 268.82C3.84998 260.17 10.88 253.14 19.53 253.14H253.43C262.08 253.14 269.11 260.17 269.11 268.82C269.11 277.47 262.08 284.5 253.43 284.5Z" fill="#6C63FF"/>
<path d="M176.78 31.36H15.68C7.03 31.36 0 24.33 0 15.68C0 7.03 7.03 0 15.68 0H176.78C185.43 0 192.46 7.03 192.46 15.68C192.46 24.33 185.43 31.36 176.78 31.36Z" fill="#E2E3E4"/>
<path d="M253.43 158.43H19.53C10.61 158.43 3.34998 151.17 3.34998 142.25C3.34998 133.33 10.61 126.07 19.53 126.07H253.43C262.35 126.07 269.61 133.33 269.61 142.25C269.61 151.17 262.35 158.43 253.43 158.43ZM19.53 128.07C11.71 128.07 5.34998 134.43 5.34998 142.25C5.34998 150.07 11.71 156.43 19.53 156.43H253.43C261.25 156.43 267.61 150.07 267.61 142.25C267.61 134.43 261.25 128.07 253.43 128.07H19.53Z" fill="#E2E3E4"/>
<path d="M253.43 221.72H19.53C10.61 221.72 3.34998 214.46 3.34998 205.54C3.34998 196.62 10.61 189.36 19.53 189.36H253.43C262.35 189.36 269.61 196.62 269.61 205.54C269.61 214.46 262.35 221.72 253.43 221.72ZM19.53 191.36C11.71 191.36 5.34998 197.72 5.34998 205.54C5.34998 213.36 11.71 219.72 19.53 219.72H253.43C261.25 219.72 267.61 213.36 267.61 205.54C267.61 197.72 261.25 191.36 253.43 191.36H19.53Z" fill="#E2E3E4"/>
<path d="M11.49 51.17H72.79C74.25 51.17 75.44 52.35 75.44 53.82C75.44 55.28 74.25 56.47 72.79 56.47H11.49C10.03 56.47 8.83997 55.29 8.83997 53.82C8.83997 52.36 10.03 51.17 11.49 51.17Z" fill="#E2E3E4"/>
<path d="M11.49 115.95H72.79C74.25 115.95 75.44 117.13 75.44 118.59C75.44 120.05 74.25 121.24 72.79 121.24H11.49C10.03 121.24 8.83997 120.06 8.83997 118.6C8.83997 117.14 10.03 115.95 11.49 115.95Z" fill="#E2E3E4"/>
<path d="M11.49 180.74H72.79C74.25 180.74 75.44 181.92 75.44 183.39C75.44 184.85 74.25 186.03 72.79 186.03H11.49C10.03 186.03 8.83997 184.85 8.83997 183.38C8.83997 181.92 10.03 180.74 11.49 180.74Z" fill="#E2E3E4"/>
<path d="M447.08 132.26L424.72 139.62V107.43H445.01L447.08 132.26Z" fill="#9F616A"/>
<path d="M427.49 116.34C439.795 116.34 449.77 106.365 449.77 94.06C449.77 81.7551 439.795 71.78 427.49 71.78C415.185 71.78 405.21 81.7551 405.21 94.06C405.21 106.365 415.185 116.34 427.49 116.34Z" fill="#9F616A"/>
<path d="M433.61 91.85C429.88 91.74 427.43 87.97 425.98 84.53C424.53 81.09 423.04 77.14 419.58 75.72C416.75 74.56 411.76 82.41 409.53 80.32C407.2 78.14 409.47 66.95 411.94 64.94C414.41 62.93 417.79 62.54 420.97 62.39C428.73 62.03 436.54 62.66 444.15 64.25C448.86 65.23 453.7 66.71 457.1 70.11C461.4 74.43 462.5 80.94 462.81 87.03C463.13 93.26 462.77 99.78 459.74 105.23C456.71 110.68 450.37 114.7 444.29 113.31C443.68 110.01 444.3 106.62 444.54 103.26C444.77 99.91 444.53 96.29 442.48 93.62C440.44 90.95 436.06 89.89 433.68 92.26" fill="#2F2E43"/>
<path d="M461.02 99.57C463.25 97.94 465.92 96.57 468.66 96.91C471.62 97.27 474.13 99.71 474.89 102.6C475.65 105.49 474.8 108.67 472.96 111.03C471.13 113.39 468.4 114.95 465.52 115.73C463.85 116.18 462.02 116.37 460.43 115.69C458.09 114.68 456.82 111.69 457.74 109.31" fill="#2F2E43"/>
<path d="M375.76 309.2C374.27 316.52 377 323.21 381.84 324.14C386.68 325.07 391.81 319.88 393.29 312.56C393.92 309.64 393.82 306.62 393 303.74L411.43 188.99L388.38 184.65L379.48 301.15C377.59 303.51 376.32 306.27 375.76 309.21V309.2Z" fill="#9F616A"/>
<path d="M424.48 124.85H408.75C397.63 126.54 394.61 132.47 392.08 143.43C388.22 160.15 383.29 182.41 384.27 182.74C385.84 183.26 412.62 195.86 426.27 192.98L424.48 124.85Z" fill="#E2E3E4"/>
<path d="M439.69 490.36H418.75V520.07H439.69V490.36Z" fill="#9F616A"/>
<path d="M398.36 538.05C396.16 538.05 394.2 538 392.72 537.86C387.16 537.35 381.85 533.24 379.18 530.84C377.98 529.76 377.6 528.04 378.22 526.56C378.67 525.5 379.56 524.7 380.67 524.39L395.37 520.19L419.17 504.13L419.44 504.61C419.54 504.79 421.88 509 422.66 511.84C422.96 512.92 422.88 513.82 422.43 514.52C422.12 515 421.68 515.28 421.33 515.44C421.76 515.89 423.11 516.81 427.27 517.47C433.34 518.43 434.62 512.14 434.67 511.88L434.71 511.67L434.89 511.55C437.78 509.69 439.56 508.84 440.17 509.02C440.55 509.13 441.19 509.33 442.92 526.46C443.09 527 444.3 530.94 443.48 534.71C442.59 538.81 424.67 537.4 421.08 537.08C420.98 537.09 407.56 538.05 398.37 538.05H398.36Z" fill="#2F2E43"/>
<path d="M499.316 467.018L481.548 478.099L497.27 503.308L515.038 492.227L499.316 467.018Z" fill="#9F616A"/>
<path d="M475.72 533.98C473.26 533.98 471 533.68 469.39 533.4C467.81 533.12 466.57 531.86 466.31 530.28C466.13 529.14 466.46 527.99 467.24 527.14L477.49 515.8L489.19 489.58L489.67 489.84C489.85 489.94 494.06 492.27 496.23 494.27C497.06 495.03 497.47 495.84 497.45 496.67C497.44 497.25 497.22 497.71 497 498.04C497.6 498.2 499.23 498.26 503.11 496.62C508.77 494.23 506.53 488.21 506.43 487.96L506.35 487.76L506.44 487.57C507.91 484.46 508.96 482.8 509.58 482.63C509.97 482.52 510.61 482.35 521.14 495.98C521.57 496.34 524.68 499.05 525.98 502.68C527.39 506.63 511.44 514.92 508.23 516.54C508.13 516.62 491.44 528.75 484.58 532.2C481.86 533.57 478.64 533.99 475.71 533.99L475.72 533.98Z" fill="#2F2E43"/>
<path d="M455.11 241.91H396.48L391.16 296.45L414.44 497.97H444.37L432.4 381.58L480.95 486.66L507.55 468.04L469.64 369.94C469.64 369.94 483.18 284.48 472.54 263.19C461.9 241.91 455.11 241.91 455.11 241.91Z" fill="#2F2E43"/>
<path d="M484.28 245.23H391.16L419.1 124.85H459.67L484.28 245.23Z" fill="#E2E3E4"/>
<path d="M492.66 309.2C494.15 316.52 491.42 323.21 486.58 324.14C481.74 325.07 476.61 319.88 475.13 312.56C474.5 309.64 474.6 306.62 475.42 303.74L456.99 188.99L480.04 184.65L488.94 301.15C490.83 303.51 492.1 306.27 492.66 309.21V309.2Z" fill="#9F616A"/>
<path d="M443.94 124.85H459.67C470.79 126.54 473.81 132.47 476.34 143.43C480.2 160.15 485.13 182.41 484.15 182.74C482.58 183.26 455.8 195.86 442.15 192.98L443.94 124.85Z" fill="#E2E3E4"/>
</g>
<defs>
<clipPath id="clip0_11_58">
<rect width="751.57" height="539.42" fill="white"/>
</clipPath>
</defs>
</svg>
